<?xml version="1.0" encoding="UTF-8" standalone="no"?>
<!DOCTYPE svg PUBLIC "-//W3C//DTD SVG 1.1//EN"
 "http://www.w3.org/Graphics/SVG/1.1/DTD/svg11.dtd">
<!-- Generated by graphviz version 2.30.1 (20180420.1509)
 -->
<!-- Title: %3 Pages: 1 -->
<svg width="505pt" height="567pt"
 viewBox="0.00 0.00 505.00 567.00" xmlns="http://www.w3.org/2000/svg" xmlns:xlink="http://www.w3.org/1999/xlink">
<g id="graph0" class="graph" transform="scale(1 1) rotate(0) translate(4 563)">
<title>%3</title>
<polygon fill="white" stroke="white" points="-4,5 -4,-563 502,-563 502,5 -4,5"/>
<g id="clust1" class="cluster"><title>cluster_pdf_build_deposit_state_diagram</title>
<polygon fill="none" stroke="black" points="8,-8 8,-551 484,-551 484,-8 8,-8"/>
<text text-anchor="middle" x="246" y="-535.8" font-family="Times,serif" font-size="14.00">Deposit.state</text>
</g>
<!-- START -->
<g id="node1" class="node"><title>START</title>
<ellipse fill="black" stroke="black" cx="279" cy="-518" rx="1.8" ry="1.8"/>
</g>
<!-- WAITING_FOR_ITEMS -->
<g id="node3" class="node"><title>WAITING_FOR_ITEMS</title>
<ellipse fill="#d2b48c" stroke="black" cx="279" cy="-460" rx="102.536" ry="18"/>
<text text-anchor="middle" x="279" y="-456.3" font-family="Times,serif" font-size="14.00">WAITING_FOR_ITEMS</text>
</g>
<!-- START&#45;&gt;WAITING_FOR_ITEMS -->
<g id="edge1" class="edge"><title>START&#45;&gt;WAITING_FOR_ITEMS</title>
<path fill="none" stroke="#be9f78" d="M279,-516.028C279,-512.568 279,-500.416 279,-488.408"/>
<polygon fill="#be9f78" stroke="#be9f78" points="282.5,-488.116 279,-478.116 275.5,-488.116 282.5,-488.116"/>
</g>
<!-- END -->
<g id="node2" class="node"><title>END</title>
<ellipse fill="black" stroke="black" cx="218" cy="-38" rx="18" ry="18"/>
<ellipse fill="none" stroke="black" cx="218" cy="-38" rx="22" ry="22"/>
</g>
<!-- COMMITTED -->
<g id="node4" class="node"><title>COMMITED</title>
<ellipse fill="#d2b48c" stroke="black" cx="223" cy="-374" rx="59.1941" ry="18"/>
<text text-anchor="middle" x="223" y="-370.3" font-family="Times,serif" font-size="14.00">COMMITED</text>
</g>
<!-- WAITING_FOR_ITEMS&#45;&gt;COMMITTED -->
<g id="edge2" class="edge"><title>WAITING_FOR_ITEMS&#45;&gt;COMMITED</title>
<path fill="none" stroke="#be9f78" d="M273.028,-441.906C269.205,-432.125 263.705,-419.875 257,-410 254.414,-406.191 251.394,-402.422 248.24,-398.848"/>
<polygon fill="#be9f78" stroke="#be9f78" points="250.637,-396.288 241.24,-391.394 245.535,-401.08 250.637,-396.288"/>
<text text-anchor="middle" x="282" y="-413.9" font-family="Times,serif" font-size="12.00" fill="#777777">commit</text>
</g>
<!-- EXPIRED -->
<g id="node7" class="node"><title>EXPIRED</title>
<ellipse fill="#d2b48c" stroke="black" cx="218" cy="-116" rx="48.1437" ry="18"/>
<text text-anchor="middle" x="218" y="-112.3" font-family="Times,serif" font-size="14.00">EXPIRED</text>
</g>
<!-- WAITING_FOR_ITEMS&#45;&gt;EXPIRED -->
<g id="edge9" class="edge"><title>WAITING_FOR_ITEMS&#45;&gt;EXPIRED</title>
<path fill="none" stroke="#be9f78" d="M304.7,-442.297C368.973,-398.49 526.615,-277.239 456,-184 433.905,-154.827 335.662,-134.793 272.508,-124.665"/>
<polygon fill="#be9f78" stroke="#be9f78" points="272.728,-121.157 262.307,-123.066 271.644,-128.073 272.728,-121.157"/>
<text text-anchor="middle" x="482" y="-284.9" font-family="Times,serif" font-size="12.00" fill="#777777">expire</text>
</g>
<!-- WAITING_FOR_RESULT -->
<g id="node5" class="node"><title>WAITING_FOR_RESULT</title>
<ellipse fill="#d2b48c" stroke="black" cx="223" cy="-288" rx="108.31" ry="18"/>
<text text-anchor="middle" x="223" y="-284.3" font-family="Times,serif" font-size="14.00">WAITING_FOR_RESULT</text>
</g>
<!-- COMMITTED&#45;&gt;WAITING_FOR_RESULT -->
<g id="edge3" class="edge"><title>COMMITED&#45;&gt;WAITING_FOR_RESULT</title>
<path fill="none" stroke="#be9f78" d="M223,-355.595C223,-344.257 223,-329.227 223,-316.315"/>
<polygon fill="#be9f78" stroke="#be9f78" points="226.5,-316.095 223,-306.095 219.5,-316.095 226.5,-316.095"/>
<text text-anchor="middle" x="238.5" y="-327.9" font-family="Times,serif" font-size="12.00" fill="#777777">started</text>
</g>
<!-- COMMITTED&#45;&gt;EXPIRED -->
<g id="edge10" class="edge"><title>COMMITED&#45;&gt;EXPIRED</title>
<path fill="none" stroke="#be9f78" d="M168.873,-366.392C144.921,-361.469 117.396,-352.899 96,-338 49.9383,-305.926 51.8767,-276.122 51,-220 50.7501,-204.002 42.0368,-197.254 51,-184 75.6594,-147.537 123.768,-130.915 162.041,-123.34"/>
<polygon fill="#be9f78" stroke="#be9f78" points="162.831,-126.754 172.042,-121.518 161.576,-119.867 162.831,-126.754"/>
<text text-anchor="middle" x="67" y="-241.9" font-family="Times,serif" font-size="12.00" fill="#777777">expire</text>
</g>
<!-- COMMITTED&#45;&gt;WAITING_FOR_ITEMS -->
<g id="edge16" class="edge"><title>COMMITED&#45;&gt;WAITING_FOR_ITEMS</title>
<path fill="none" stroke="#be9f78" d="M217.55,-391.929C215.376,-401.887 214.517,-414.372 220,-424 222.836,-428.981 226.691,-433.325 231.082,-437.098"/>
<polygon fill="#be9f78" stroke="#be9f78" points="229.335,-440.158 239.458,-443.283 233.493,-434.527 229.335,-440.158"/>
<text text-anchor="middle" x="236.5" y="-413.9" font-family="Times,serif" font-size="12.00" fill="#777777">reopen</text>
</g>
<!-- RESULT_IS_READY -->
<g id="node6" class="node"><title>RESULT_IS_READY</title>
<ellipse fill="#d2b48c" stroke="black" cx="357" cy="-202" rx="90.4879" ry="18"/>
<text text-anchor="middle" x="357" y="-198.3" font-family="Times,serif" font-size="14.00">RESULT_IS_READY</text>
</g>
<!-- WAITING_FOR_RESULT&#45;&gt;RESULT_IS_READY -->
<g id="edge4" class="edge"><title>WAITING_FOR_RESULT&#45;&gt;RESULT_IS_READY</title>
<path fill="none" stroke="#be9f78" d="M249.474,-270.404C270.348,-257.319 299.628,-238.965 322.364,-224.712"/>
<polygon fill="#be9f78" stroke="#be9f78" points="324.423,-227.552 331.037,-219.275 320.705,-221.621 324.423,-227.552"/>
<text text-anchor="middle" x="322.5" y="-241.9" font-family="Times,serif" font-size="12.00" fill="#777777">succeeded</text>
</g>
<!-- NO_RESULT -->
<g id="node8" class="node"><title>NO_RESULT</title>
<ellipse fill="#d2b48c" stroke="black" cx="121" cy="-202" rx="61.1419" ry="18"/>
<text text-anchor="middle" x="121" y="-198.3" font-family="Times,serif" font-size="14.00">NO_RESULT</text>
</g>
<!-- WAITING_FOR_RESULT&#45;&gt;NO_RESULT -->
<g id="edge7" class="edge"><title>WAITING_FOR_RESULT&#45;&gt;NO_RESULT</title>
<path fill="none" stroke="#be9f78" d="M194.985,-270.5C186.37,-264.994 177.044,-258.577 169,-252 159.824,-244.498 150.527,-235.422 142.591,-227.131"/>
<polygon fill="#be9f78" stroke="#be9f78" points="145.119,-224.709 135.727,-219.804 140.01,-229.495 145.119,-224.709"/>
<text text-anchor="middle" x="191" y="-241.9" font-family="Times,serif" font-size="12.00" fill="#777777">no_result</text>
</g>
<!-- WAITING_FOR_RESULT&#45;&gt;EXPIRED -->
<g id="edge11" class="edge"><title>WAITING_FOR_RESULT&#45;&gt;EXPIRED</title>
<path fill="none" stroke="#be9f78" d="M222.493,-269.764C221.622,-240.159 219.836,-179.433 218.797,-144.112"/>
<polygon fill="#be9f78" stroke="#be9f78" points="222.293,-143.922 218.501,-134.029 215.296,-144.128 222.293,-143.922"/>
<text text-anchor="middle" x="236" y="-198.9" font-family="Times,serif" font-size="12.00" fill="#777777">expire</text>
</g>
<!-- RESULT_IS_READY&#45;&gt;EXPIRED -->
<g id="edge5" class="edge"><title>RESULT_IS_READY&#45;&gt;EXPIRED</title>
<path fill="none" stroke="#be9f78" d="M330.199,-184.804C307.674,-171.192 275.379,-151.675 251.216,-137.073"/>
<polygon fill="#be9f78" stroke="#be9f78" points="252.76,-133.916 242.391,-131.74 249.139,-139.907 252.76,-133.916"/>
<text text-anchor="middle" x="310" y="-155.9" font-family="Times,serif" font-size="12.00" fill="#777777">expire</text>
</g>
<!-- RESULT_IS_READY&#45;&gt;COMMITTED -->
<g id="edge13" class="edge"><title>RESULT_IS_READY&#45;&gt;COMMITED</title>
<path fill="none" stroke="#be9f78" d="M358.571,-220.066C359.688,-242.043 358.473,-280.441 340,-306 323.174,-329.279 295.597,-345.636 271.44,-356.357"/>
<polygon fill="#be9f78" stroke="#be9f78" points="269.883,-353.215 262.035,-360.332 272.608,-359.663 269.883,-353.215"/>
<text text-anchor="middle" x="366" y="-284.9" font-family="Times,serif" font-size="12.00" fill="#777777">retry</text>
</g>
<!-- RESULT_IS_READY&#45;&gt;WAITING_FOR_ITEMS -->
<g id="edge15" class="edge"><title>RESULT_IS_READY&#45;&gt;WAITING_FOR_ITEMS</title>
<path fill="none" stroke="#be9f78" d="M366.318,-219.933C376.395,-240.478 389.898,-276.082 381,-306 365.925,-356.688 327.652,-405.839 302.515,-434.219"/>
<polygon fill="#be9f78" stroke="#be9f78" points="299.594,-432.231 295.489,-441.998 304.789,-436.923 299.594,-432.231"/>
<text text-anchor="middle" x="389.5" y="-327.9" font-family="Times,serif" font-size="12.00" fill="#777777">reopen</text>
</g>
<!-- EXPIRED&#45;&gt;END -->
<g id="edge6" class="edge"><title>EXPIRED&#45;&gt;END</title>
<path fill="none" stroke="#be9f78" d="M218,-97.7544C218,-89.6721 218,-79.7829 218,-70.4394"/>
<polygon fill="#be9f78" stroke="#be9f78" points="221.5,-70.2476 218,-60.2476 214.5,-70.2476 221.5,-70.2476"/>
</g>
<!-- NO_RESULT&#45;&gt;EXPIRED -->
<g id="edge8" class="edge"><title>NO_RESULT&#45;&gt;EXPIRED</title>
<path fill="none" stroke="#be9f78" d="M139.703,-184.804C154.558,-171.939 175.504,-153.801 191.993,-139.521"/>
<polygon fill="#be9f78" stroke="#be9f78" points="194.416,-142.054 199.684,-132.861 189.833,-136.762 194.416,-142.054"/>
<text text-anchor="middle" x="191" y="-155.9" font-family="Times,serif" font-size="12.00" fill="#777777">expire</text>
</g>
<!-- NO_RESULT&#45;&gt;COMMITTED -->
<g id="edge12" class="edge"><title>NO_RESULT&#45;&gt;COMMITED</title>
<path fill="none" stroke="#be9f78" d="M106.064,-219.663C88.9561,-240.872 65.4227,-278.102 83,-306 100.873,-334.368 134.448,-350.988 164.238,-360.579"/>
<polygon fill="#be9f78" stroke="#be9f78" points="163.582,-364.036 174.167,-363.568 165.601,-357.334 163.582,-364.036"/>
<text text-anchor="middle" x="94" y="-284.9" font-family="Times,serif" font-size="12.00" fill="#777777">retry</text>
</g>
<!-- NO_RESULT&#45;&gt;WAITING_FOR_ITEMS -->
<g id="edge14" class="edge"><title>NO_RESULT&#45;&gt;WAITING_FOR_ITEMS</title>
<path fill="none" stroke="#be9f78" d="M77.6129,-214.813C66.1618,-220.051 55.0471,-227.495 48,-238 -21.7346,-341.948 30.5249,-317.585 43,-338 78.1615,-395.541 150.333,-426.847 205.659,-443.102"/>
<polygon fill="#be9f78" stroke="#be9f78" points="204.856,-446.513 215.431,-445.87 206.764,-439.777 204.856,-446.513"/>
<text text-anchor="middle" x="59.5" y="-327.9" font-family="Times,serif" font-size="12.00" fill="#777777">reopen</text>
</g>
</g>
</svg>
