<?xml version="1.0" encoding="UTF-8" standalone="no"?>
<!DOCTYPE svg PUBLIC "-//W3C//DTD SVG 1.1//EN"
 "http://www.w3.org/Graphics/SVG/1.1/DTD/svg11.dtd">
<!-- Generated by graphviz version 2.30.1 (20180420.1509)
 -->
<!-- Title: %3 Pages: 1 -->
<svg width="853pt" height="1399pt"
 viewBox="0.00 0.00 853.40 1399.00" xmlns="http://www.w3.org/2000/svg" xmlns:xlink="http://www.w3.org/1999/xlink">
<g id="graph0" class="graph" transform="scale(1 1) rotate(0) translate(4 1395)">
<title>%3</title>
<polygon fill="white" stroke="white" points="-4,5 -4,-1395 850.399,-1395 850.399,5 -4,5"/>
<g id="clust1" class="cluster"><title>cluster_api_Deposits_state</title>
<polygon fill="none" stroke="black" points="54.3988,-8 54.3988,-1383 503.399,-1383 503.399,-8 54.3988,-8"/>
<text text-anchor="middle" x="278.899" y="-1367.8" font-family="Times,serif" font-size="14.00">api.Deposits.state</text>
</g>
<g id="clust2" class="cluster"><title>cluster_api_Items_state</title>
<polygon fill="none" stroke="black" points="511.399,-431 511.399,-1294 837.399,-1294 837.399,-431 511.399,-431"/>
<text text-anchor="middle" x="674.399" y="-1278.8" font-family="Times,serif" font-size="14.00">api.Items.state</text>
</g>
<!-- api.deposits.state.EXPIRED -->
<g id="node1" class="node"><title>api.deposits.state.EXPIRED</title>
<ellipse fill="none" stroke="black" cx="184.399" cy="-68" rx="48.14" ry="48.1843"/>
<ellipse fill="none" stroke="black" cx="184.399" cy="-68" rx="52.1437" ry="52.1916"/>
<text text-anchor="middle" x="184.399" y="-64.3" font-family="Times,serif" font-size="14.00">EXPIRED</text>
</g>
<!-- api.deposits.state.RESULT_IS_READY -->
<g id="node2" class="node"><title>api.deposits.state.RESULT_IS_READY</title>
<ellipse fill="none" stroke="black" cx="382.399" cy="-1261" rx="90.4879" ry="90.9839"/>
<text text-anchor="middle" x="382.399" y="-1257.3" font-family="Times,serif" font-size="14.00">RESULT_IS_READY</text>
</g>
<!-- api.deposits.state.COMMITTED -->
<g id="node5" class="node"><title>api.deposits.state.COMMITED</title>
<ellipse fill="none" stroke="black" cx="351.399" cy="-1007" rx="59.1941" ry="59.5901"/>
<text text-anchor="middle" x="351.399" y="-1003.3" font-family="Times,serif" font-size="14.00">COMMITED</text>
</g>
<!-- api.deposits.state.RESULT_IS_READY&#45;&gt;api.deposits.state.COMMITTED -->
<g id="edge2" class="edge"><title>api.deposits.state.RESULT_IS_READY&#45;&gt;api.deposits.state.COMMITED</title>
<path fill="none" stroke="black" d="M371.382,-1170.44C367.584,-1139.57 363.392,-1105.49 359.833,-1076.56"/>
<polygon fill="black" stroke="black" points="363.297,-1076.05 358.602,-1066.56 356.349,-1076.91 363.297,-1076.05"/>
<text text-anchor="middle" x="382.399" y="-1140.3" font-family="Times,serif" font-size="14.00">retry</text>
</g>
<!-- api.deposits.state.WAITING_FOR_ITEMS -->
<g id="node3" class="node"><title>api.deposits.state.WAITING_FOR_ITEMS</title>
<ellipse fill="none" stroke="black" cx="339.399" cy="-275" rx="102.536" ry="102.882"/>
<text text-anchor="middle" x="339.399" y="-271.3" font-family="Times,serif" font-size="14.00">WAITING_FOR_ITEMS</text>
</g>
<!-- api.deposits.state.RESULT_IS_READY&#45;&gt;api.deposits.state.WAITING_FOR_ITEMS -->
<g id="edge6" class="edge"><title>api.deposits.state.RESULT_IS_READY&#45;&gt;api.deposits.state.WAITING_FOR_ITEMS</title>
<path fill="none" stroke="black" d="M408.307,-1173.53C412.801,-1155.34 416.845,-1136.16 419.399,-1118 436.356,-997.374 450.985,-690.386 432.399,-570 422.418,-505.357 400.78,-435.448 380.886,-380.026"/>
<polygon fill="black" stroke="black" points="384.152,-378.765 377.453,-370.556 377.571,-381.15 384.152,-378.765"/>
<text text-anchor="middle" x="459.899" y="-720.3" font-family="Times,serif" font-size="14.00">reopen</text>
</g>
<!-- api.deposits.state.RESULT_IS_READY&#45;&gt;api.deposits.state.EXPIRED -->
<g id="edge14" class="edge"><title>api.deposits.state.RESULT_IS_READY&#45;&gt;api.deposits.state.EXPIRED</title>
<path fill="none" stroke="black" d="M415.232,-1175.89C421.856,-1157.03 428.331,-1136.98 433.399,-1118 465.308,-998.476 471.467,-967.226 482.399,-844 491.824,-737.751 506.906,-707.813 482.399,-604 480.344,-595.295 475.694,-594.645 473.399,-586 426.099,-407.89 558.734,-321.077 450.399,-172 403.242,-107.109 309.264,-83.0989 246.597,-74.2158"/>
<polygon fill="black" stroke="black" points="246.809,-70.7134 236.436,-72.8685 245.889,-77.6526 246.809,-70.7134"/>
<text text-anchor="middle" x="490.399" y="-574.3" font-family="Times,serif" font-size="14.00">expire</text>
</g>
<!-- api.deposits.state.WAITING_FOR_ITEMS&#45;&gt;api.deposits.state.COMMITTED -->
<g id="edge9" class="edge"><title>api.deposits.state.WAITING_FOR_ITEMS&#45;&gt;api.deposits.state.COMMITED</title>
<path fill="none" stroke="black" d="M359.075,-375.919C378.788,-489.474 403.88,-680.306 386.399,-844 383.023,-875.608 376.043,-910.105 369.198,-939.111"/>
<polygon fill="black" stroke="black" points="365.724,-938.586 366.789,-949.128 372.53,-940.223 365.724,-938.586"/>
<text text-anchor="middle" x="407.899" y="-574.3" font-family="Times,serif" font-size="14.00">commit</text>
</g>
<!-- api.deposits.state.WAITING_FOR_ITEMS&#45;&gt;api.deposits.state.EXPIRED -->
<g id="edge10" class="edge"><title>api.deposits.state.WAITING_FOR_ITEMS&#45;&gt;api.deposits.state.EXPIRED</title>
<path fill="none" stroke="black" d="M277.916,-192.684C258.796,-167.396 238.315,-140.309 221.409,-117.949"/>
<polygon fill="black" stroke="black" points="224.174,-115.803 215.351,-109.937 218.591,-120.025 224.174,-115.803"/>
<text text-anchor="middle" x="265.399" y="-142.3" font-family="Times,serif" font-size="14.00">expire</text>
</g>
<!-- api.deposits.state._initial -->
<g id="node4" class="node"><title>api.deposits.state._initial</title>
<ellipse fill="black" stroke="black" cx="307.399" cy="-491" rx="1.8" ry="1.8"/>
</g>
<!-- api.deposits.state._initial&#45;&gt;api.deposits.state.WAITING_FOR_ITEMS -->
<g id="edge1" class="edge"><title>api.deposits.state._initial&#45;&gt;api.deposits.state.WAITING_FOR_ITEMS</title>
<path fill="none" stroke="black" d="M307.541,-489.046C308.621,-481.824 315.662,-434.742 322.85,-386.67"/>
<polygon fill="black" stroke="black" points="326.318,-387.141 324.336,-376.734 319.395,-386.106 326.318,-387.141"/>
</g>
<!-- api.deposits.state.COMMITTED&#45;&gt;api.deposits.state.WAITING_FOR_ITEMS -->
<g id="edge5" class="edge"><title>api.deposits.state.COMMITED&#45;&gt;api.deposits.state.WAITING_FOR_ITEMS</title>
<path fill="none" stroke="black" d="M361.252,-947.706C365.958,-916.96 371.064,-878.549 373.399,-844 376.995,-790.788 403.126,-648.28 373.399,-604 361.622,-586.458 341.176,-603.542 329.399,-586 325.435,-580.096 329.278,-577.11 329.399,-570 330.422,-509.79 332.625,-442.674 334.702,-387.787"/>
<polygon fill="black" stroke="black" points="338.204,-387.812 335.089,-377.685 331.209,-387.544 338.204,-387.812"/>
<text text-anchor="middle" x="347.899" y="-574.3" font-family="Times,serif" font-size="14.00">reopen</text>
</g>
<!-- api.deposits.state.WAITING_FOR_RESULT -->
<g id="node7" class="node"><title>api.deposits.state.WAITING_FOR_RESULT</title>
<ellipse fill="none" stroke="black" cx="191.399" cy="-724" rx="108.31" ry="108.581"/>
<text text-anchor="middle" x="191.399" y="-720.3" font-family="Times,serif" font-size="14.00">WAITING_FOR_RESULT</text>
</g>
<!-- api.deposits.state.COMMITTED&#45;&gt;api.deposits.state.WAITING_FOR_RESULT -->
<g id="edge7" class="edge"><title>api.deposits.state.COMMITED&#45;&gt;api.deposits.state.WAITING_FOR_RESULT</title>
<path fill="none" stroke="black" d="M322.238,-954.787C302.042,-919.318 274.465,-870.885 249.835,-827.628"/>
<polygon fill="black" stroke="black" points="252.779,-825.726 244.79,-818.768 246.696,-829.19 252.779,-825.726"/>
<text text-anchor="middle" x="294.899" y="-866.3" font-family="Times,serif" font-size="14.00">started</text>
</g>
<!-- api.deposits.state.COMMITTED&#45;&gt;api.deposits.state.EXPIRED -->
<g id="edge15" class="edge"><title>api.deposits.state.COMMITED&#45;&gt;api.deposits.state.EXPIRED</title>
<path fill="none" stroke="black" d="M329.905,-951.104C319.537,-931.076 305.194,-909.943 286.399,-896 208.136,-837.941 133.581,-920.642 73.3988,-844 -98.9238,-624.547 76.4959,-258.704 152.765,-122.361"/>
<polygon fill="black" stroke="black" points="155.994,-123.76 157.86,-113.331 149.898,-120.32 155.994,-123.76"/>
<text text-anchor="middle" x="41.3988" y="-487.3" font-family="Times,serif" font-size="14.00">expire</text>
</g>
<!-- api.deposits.state.NO_RESULT -->
<g id="node6" class="node"><title>api.deposits.state.NO_RESULT</title>
<ellipse fill="none" stroke="black" cx="225.399" cy="-491" rx="61.1419" ry="61.1893"/>
<text text-anchor="middle" x="225.399" y="-487.3" font-family="Times,serif" font-size="14.00">NO_RESULT</text>
</g>
<!-- api.deposits.state.NO_RESULT&#45;&gt;api.deposits.state.COMMITTED -->
<g id="edge8" class="edge"><title>api.deposits.state.NO_RESULT&#45;&gt;api.deposits.state.COMMITED</title>
<path fill="none" stroke="black" d="M266.799,-536.336C282.486,-555.694 298.85,-579.539 308.399,-604 331.416,-662.966 343.345,-838.396 348.384,-936.908"/>
<polygon fill="black" stroke="black" points="344.897,-937.257 348.893,-947.069 351.888,-936.906 344.897,-937.257"/>
<text text-anchor="middle" x="356.399" y="-720.3" font-family="Times,serif" font-size="14.00">retry</text>
</g>
<!-- api.deposits.state.NO_RESULT&#45;&gt;api.deposits.state.WAITING_FOR_ITEMS -->
<g id="edge11" class="edge"><title>api.deposits.state.NO_RESULT&#45;&gt;api.deposits.state.WAITING_FOR_ITEMS</title>
<path fill="none" stroke="black" d="M253.725,-436.826C263.707,-418.088 275.275,-396.372 286.62,-375.076"/>
<polygon fill="black" stroke="black" points="289.85,-376.457 291.463,-365.986 283.672,-373.166 289.85,-376.457"/>
<text text-anchor="middle" x="290.899" y="-400.3" font-family="Times,serif" font-size="14.00">reopen</text>
</g>
<!-- api.deposits.state.NO_RESULT&#45;&gt;api.deposits.state.EXPIRED -->
<g id="edge13" class="edge"><title>api.deposits.state.NO_RESULT&#45;&gt;api.deposits.state.EXPIRED</title>
<path fill="none" stroke="black" d="M206.082,-432.771C201.021,-415.381 196.201,-396.086 193.399,-378 180.206,-292.845 180.021,-192.955 181.718,-130.312"/>
<polygon fill="black" stroke="black" points="185.219,-130.304 182.017,-120.205 178.222,-130.097 185.219,-130.304"/>
<text text-anchor="middle" x="210.399" y="-271.3" font-family="Times,serif" font-size="14.00">expire</text>
</g>
<!-- api.deposits.state.WAITING_FOR_RESULT&#45;&gt;api.deposits.state.EXPIRED -->
<g id="edge3" class="edge"><title>api.deposits.state.WAITING_FOR_RESULT&#45;&gt;api.deposits.state.EXPIRED</title>
<path fill="none" stroke="black" d="M165.755,-618.186C161.445,-596.438 157.645,-573.575 155.399,-552 139.613,-400.394 160.773,-221.054 174.437,-129.457"/>
<polygon fill="black" stroke="black" points="177.903,-129.943 175.939,-119.532 170.982,-128.895 177.903,-129.943"/>
<text text-anchor="middle" x="167.399" y="-400.3" font-family="Times,serif" font-size="14.00">expire</text>
</g>
<!-- api.deposits.state.WAITING_FOR_RESULT&#45;&gt;api.deposits.state.NO_RESULT -->
<g id="edge4" class="edge"><title>api.deposits.state.WAITING_FOR_RESULT&#45;&gt;api.deposits.state.NO_RESULT</title>
<path fill="none" stroke="black" d="M207.105,-616.29C209.839,-597.712 212.619,-578.829 215.158,-561.578"/>
<polygon fill="black" stroke="black" points="218.629,-562.027 216.623,-551.624 211.704,-561.008 218.629,-562.027"/>
<text text-anchor="middle" x="239.899" y="-574.3" font-family="Times,serif" font-size="14.00">no_result</text>
</g>
<!-- api.deposits.state.WAITING_FOR_RESULT&#45;&gt;api.deposits.state.RESULT_IS_READY -->
<g id="edge12" class="edge"><title>api.deposits.state.WAITING_FOR_RESULT&#45;&gt;api.deposits.state.RESULT_IS_READY</title>
<path fill="none" stroke="black" d="M180.534,-832.402C176.887,-914.762 182.252,-1029.03 226.399,-1118 242.989,-1151.44 271.095,-1180.76 298.918,-1203.94"/>
<polygon fill="black" stroke="black" points="296.783,-1206.71 306.748,-1210.31 301.203,-1201.28 296.783,-1206.71"/>
<text text-anchor="middle" x="254.399" y="-1003.3" font-family="Times,serif" font-size="14.00">succeeded</text>
</g>
<!-- api.items.state.EXPIRED -->
<g id="node8" class="node"><title>api.items.state.EXPIRED</title>
<ellipse fill="none" stroke="black" cx="742.399" cy="-491" rx="48.14" ry="48.1843"/>
<ellipse fill="none" stroke="black" cx="742.399" cy="-491" rx="52.1437" ry="52.1916"/>
<text text-anchor="middle" x="742.399" y="-487.3" font-family="Times,serif" font-size="14.00">EXPIRED</text>
</g>
<!-- api.items.state.WAITING_FOR_UPLOAD -->
<g id="node9" class="node"><title>api.items.state.WAITING_FOR_UPLOAD</title>
<ellipse fill="none" stroke="black" cx="698.399" cy="-1007" rx="111.21" ry="111.28"/>
<text text-anchor="middle" x="698.399" y="-1003.3" font-family="Times,serif" font-size="14.00">WAITING_FOR_UPLOAD</text>
</g>
<!-- api.items.state.READY_FOR_PROCESSING -->
<g id="node11" class="node"><title>api.items.state.READY_FOR_PROCESSING</title>
<ellipse fill="none" stroke="black" cx="639.399" cy="-724" rx="120.359" ry="120.479"/>
<text text-anchor="middle" x="639.399" y="-720.3" font-family="Times,serif" font-size="14.00">READY_FOR_PROCESSING</text>
</g>
<!-- api.items.state.WAITING_FOR_UPLOAD&#45;&gt;api.items.state.READY_FOR_PROCESSING -->
<g id="edge18" class="edge"><title>api.items.state.WAITING_FOR_UPLOAD&#45;&gt;api.items.state.READY_FOR_PROCESSING</title>
<path fill="none" stroke="black" d="M675.757,-898.162C672.584,-883.053 669.3,-867.411 666.062,-851.989"/>
<polygon fill="black" stroke="black" points="669.422,-850.961 663.942,-841.893 662.572,-852.399 669.422,-850.961"/>
<text text-anchor="middle" x="695.399" y="-866.3" font-family="Times,serif" font-size="14.00">uploaded</text>
</g>
<!-- api.items.state.WAITING_FOR_UPLOAD&#45;&gt;api.items.state.EXPIRED -->
<g id="edge19" class="edge"><title>api.items.state.WAITING_FOR_UPLOAD&#45;&gt;api.items.state.EXPIRED</title>
<path fill="none" stroke="black" d="M748.506,-907.41C756.75,-886.941 764.024,-865.152 768.399,-844 790.001,-739.544 780.538,-709.974 768.399,-604 766.405,-586.593 762.722,-567.956 758.742,-550.979"/>
<polygon fill="black" stroke="black" points="762.129,-550.093 756.375,-541.197 755.325,-551.74 762.129,-550.093"/>
<text text-anchor="middle" x="797.399" y="-720.3" font-family="Times,serif" font-size="14.00">expire</text>
</g>
<!-- api.items.state._initial -->
<g id="node10" class="node"><title>api.items.state._initial</title>
<ellipse fill="black" stroke="black" cx="698.399" cy="-1261" rx="1.8" ry="1.8"/>
</g>
<!-- api.items.state._initial&#45;&gt;api.items.state.WAITING_FOR_UPLOAD -->
<g id="edge16" class="edge"><title>api.items.state._initial&#45;&gt;api.items.state.WAITING_FOR_UPLOAD</title>
<path fill="none" stroke="black" d="M698.399,-1258.88C698.399,-1249.88 698.399,-1188.36 698.399,-1128.5"/>
<polygon fill="black" stroke="black" points="701.899,-1128.14 698.399,-1118.14 694.899,-1128.14 701.899,-1128.14"/>
</g>
<!-- api.items.state.READY_FOR_PROCESSING&#45;&gt;api.items.state.EXPIRED -->
<g id="edge17" class="edge"><title>api.items.state.READY_FOR_PROCESSING&#45;&gt;api.items.state.EXPIRED</title>
<path fill="none" stroke="black" d="M688.033,-613.926C698.196,-591.135 708.507,-568.009 717.379,-548.113"/>
<polygon fill="black" stroke="black" points="720.603,-549.476 721.479,-538.917 714.21,-546.625 720.603,-549.476"/>
<text text-anchor="middle" x="722.399" y="-574.3" font-family="Times,serif" font-size="14.00">expire</text>
</g>
</g>
</svg>
