<?xml version="1.0" encoding="UTF-8" standalone="no"?>
<!DOCTYPE svg PUBLIC "-//W3C//DTD SVG 1.1//EN"
 "http://www.w3.org/Graphics/SVG/1.1/DTD/svg11.dtd">
<!-- Generated by graphviz version 2.40.1 (20161225.0304)
 -->
<!-- Title: %3 Pages: 1 -->
<svg width="878pt" height="1522pt"
 viewBox="0.00 0.00 878.00 1522.20" xmlns="http://www.w3.org/2000/svg" xmlns:xlink="http://www.w3.org/1999/xlink">
<g id="graph0" class="graph" transform="scale(1 1) rotate(0) translate(4 1518.1972)">
<title>%3</title>
<polygon fill="#ffffff" stroke="transparent" points="-4,4 -4,-1518.1972 874,-1518.1972 874,4 -4,4"/>
<g id="clust1" class="cluster">
<title>cluster_api_Deposits_state</title>
<polygon fill="none" stroke="#000000" points="8,-8 8,-1506.1972 509,-1506.1972 509,-8 8,-8"/>
<text text-anchor="middle" x="258.5" y="-1489.5972" font-family="Times,serif" font-size="14.00" fill="#000000">api.Deposits.state</text>
</g>
<g id="clust2" class="cluster">
<title>cluster_api_Items_state</title>
<polygon fill="none" stroke="#000000" points="517,-547.5348 517,-1506.1972 862,-1506.1972 862,-547.5348 517,-547.5348"/>
<text text-anchor="middle" x="689.5" y="-1489.5972" font-family="Times,serif" font-size="14.00" fill="#000000">api.Items.state</text>
</g>
<!-- api.deposits.state.EXPIRED -->
<g id="node1" class="node">
<title>api.deposits.state.EXPIRED</title>
<ellipse fill="none" stroke="#000000" cx="188" cy="-70.3115" rx="50.1375" ry="50.1375"/>
<ellipse fill="none" stroke="#000000" cx="188" cy="-70.3115" rx="54.1237" ry="54.1237"/>
<text text-anchor="middle" x="188" y="-65.7115" font-family="Times,serif" font-size="14.00" fill="#000000">EXPIRED</text>
</g>
<!-- api.deposits.state.WAITING_FOR_ITEMS -->
<g id="node2" class="node">
<title>api.deposits.state.WAITING_FOR_ITEMS</title>
<ellipse fill="none" stroke="#000000" cx="123" cy="-1278.2036" rx="107.1628" ry="107.1628"/>
<text text-anchor="middle" x="123" y="-1273.6036" font-family="Times,serif" font-size="14.00" fill="#000000">WAITING_FOR_ITEMS</text>
</g>
<!-- api.deposits.state.WAITING_FOR_ITEMS&#45;&gt;api.deposits.state.EXPIRED -->
<g id="edge4" class="edge">
<title>api.deposits.state.WAITING_FOR_ITEMS&#45;&gt;api.deposits.state.EXPIRED</title>
<path fill="none" stroke="#000000" d="M56.6887,-1193.7856C43.6967,-1169.902 34,-1142.9766 34,-1115.81 34,-1115.81 34,-1115.81 34,-169.6231 34,-124.0233 82.2775,-98.3532 124.7712,-84.5904"/>
<polygon fill="#000000" stroke="#000000" points="126.035,-87.8639 134.5705,-81.5873 123.9838,-81.1711 126.035,-87.8639"/>
<text text-anchor="middle" x="51.5" y="-605.2463" font-family="Times,serif" font-size="14.00" fill="#000000">expire</text>
</g>
<!-- api.deposits.state.COMMITTED -->
<g id="node6" class="node">
<title>api.deposits.state.COMMITTED</title>
<ellipse fill="none" stroke="#000000" cx="190" cy="-942.0125" rx="67.5066" ry="67.5066"/>
<text text-anchor="middle" x="190" y="-937.4125" font-family="Times,serif" font-size="14.00" fill="#000000">COMMITTED</text>
</g>
<!-- api.deposits.state.WAITING_FOR_ITEMS&#45;&gt;api.deposits.state.COMMITTED -->
<g id="edge7" class="edge">
<title>api.deposits.state.WAITING_FOR_ITEMS&#45;&gt;api.deposits.state.COMMITTED</title>
<path fill="none" stroke="#000000" d="M152.2521,-1174.7864C156.5315,-1157.8309 160.6256,-1140.3875 164,-1123.81 170.8861,-1089.9802 176.5985,-1052.2438 180.8981,-1019.958"/>
<polygon fill="#000000" stroke="#000000" points="184.4161,-1020.0488 182.2442,-1009.679 177.4753,-1019.1399 184.4161,-1020.0488"/>
<text text-anchor="middle" x="187.5" y="-1111.21" font-family="Times,serif" font-size="14.00" fill="#000000">commit</text>
</g>
<!-- api.deposits.state._initial -->
<g id="node3" class="node">
<title>api.deposits.state._initial</title>
<ellipse fill="#000000" stroke="#000000" cx="123" cy="-1472.3972" rx="1.8" ry="1.8"/>
</g>
<!-- api.deposits.state._initial&#45;&gt;api.deposits.state.WAITING_FOR_ITEMS -->
<g id="edge1" class="edge">
<title>api.deposits.state._initial&#45;&gt;api.deposits.state.WAITING_FOR_ITEMS</title>
<path fill="none" stroke="#000000" d="M123,-1470.2163C123,-1461.8916 123,-1430.8292 123,-1396.0408"/>
<polygon fill="#000000" stroke="#000000" points="126.5001,-1395.648 123,-1385.648 119.5001,-1395.648 126.5001,-1395.648"/>
</g>
<!-- api.deposits.state.NO_RESULT -->
<g id="node4" class="node">
<title>api.deposits.state.NO_RESULT</title>
<ellipse fill="none" stroke="#000000" cx="437" cy="-310.5504" rx="64.2977" ry="64.2977"/>
<text text-anchor="middle" x="437" y="-305.9504" font-family="Times,serif" font-size="14.00" fill="#000000">NO_RESULT</text>
</g>
<!-- api.deposits.state.NO_RESULT&#45;&gt;api.deposits.state.EXPIRED -->
<g id="edge3" class="edge">
<title>api.deposits.state.NO_RESULT&#45;&gt;api.deposits.state.EXPIRED</title>
<path fill="none" stroke="#000000" d="M408.0203,-252.7313C388.2638,-217.622 359.4724,-173.73 325,-142.6231 302.6822,-122.4841 273.7363,-106.1461 248.2047,-94.1292"/>
<polygon fill="#000000" stroke="#000000" points="249.5204,-90.8822 238.9713,-89.8983 246.6044,-97.2459 249.5204,-90.8822"/>
<text text-anchor="middle" x="374.5" y="-165.0231" font-family="Times,serif" font-size="14.00" fill="#000000">expire</text>
</g>
<!-- api.deposits.state.NO_RESULT&#45;&gt;api.deposits.state.WAITING_FOR_ITEMS -->
<g id="edge6" class="edge">
<title>api.deposits.state.NO_RESULT&#45;&gt;api.deposits.state.WAITING_FOR_ITEMS</title>
<path fill="none" stroke="#000000" d="M460.4008,-370.6234C473.1228,-406.5313 487.5459,-453.4057 494,-496.4777 508.9334,-596.1372 519.723,-625.7812 494,-723.215 485.0662,-757.0547 461,-759.7159 461,-794.715 461,-1115.81 461,-1115.81 461,-1115.81 461,-1166.7645 334.6216,-1216.1233 236.4191,-1246.786"/>
<polygon fill="#000000" stroke="#000000" points="235.2293,-1243.4903 226.7082,-1249.7863 237.2958,-1250.1783 235.2293,-1243.4903"/>
<text text-anchor="middle" x="492" y="-763.615" font-family="Times,serif" font-size="14.00" fill="#000000">reopen</text>
</g>
<!-- api.deposits.state.NO_RESULT&#45;&gt;api.deposits.state.COMMITTED -->
<g id="edge2" class="edge">
<title>api.deposits.state.NO_RESULT&#45;&gt;api.deposits.state.COMMITTED</title>
<path fill="none" stroke="#000000" d="M449.9252,-373.6962C463.9527,-457.6965 477.989,-608.8808 426,-723.215 390.6939,-800.8601 313.57,-863.7086 257.0592,-901.7957"/>
<polygon fill="#000000" stroke="#000000" points="254.9199,-899.0149 248.5277,-907.4642 258.7938,-904.8453 254.9199,-899.0149"/>
<text text-anchor="middle" x="476" y="-605.2463" font-family="Times,serif" font-size="14.00" fill="#000000">retry</text>
</g>
<!-- api.deposits.state.WAITING_FOR_RESULT -->
<g id="node5" class="node">
<title>api.deposits.state.WAITING_FOR_RESULT</title>
<ellipse fill="none" stroke="#000000" cx="304" cy="-609.8463" rx="113.2374" ry="113.2374"/>
<text text-anchor="middle" x="304" y="-605.2463" font-family="Times,serif" font-size="14.00" fill="#000000">WAITING_FOR_RESULT</text>
</g>
<!-- api.deposits.state.WAITING_FOR_RESULT&#45;&gt;api.deposits.state.EXPIRED -->
<g id="edge11" class="edge">
<title>api.deposits.state.WAITING_FOR_RESULT&#45;&gt;api.deposits.state.EXPIRED</title>
<path fill="none" stroke="#000000" d="M318.1957,-497.0889C319.3012,-481.7838 320,-466.2622 320,-451.4777 320,-451.4777 320,-451.4777 320,-169.6231 320,-131.3509 284.1283,-105.993 249.7849,-90.4856"/>
<polygon fill="#000000" stroke="#000000" points="250.7404,-87.0875 240.1699,-86.3703 247.9861,-93.5228 250.7404,-87.0875"/>
<text text-anchor="middle" x="337.5" y="-305.9504" font-family="Times,serif" font-size="14.00" fill="#000000">expire</text>
</g>
<!-- api.deposits.state.WAITING_FOR_RESULT&#45;&gt;api.deposits.state.NO_RESULT -->
<g id="edge5" class="edge">
<title>api.deposits.state.WAITING_FOR_RESULT&#45;&gt;api.deposits.state.NO_RESULT</title>
<path fill="none" stroke="#000000" d="M350.1437,-506.0071C368.8183,-463.9829 389.8631,-416.6247 406.5601,-379.0507"/>
<polygon fill="#000000" stroke="#000000" points="409.8448,-380.2776 410.7073,-369.7179 403.448,-377.435 409.8448,-380.2776"/>
<text text-anchor="middle" x="403.5" y="-446.8777" font-family="Times,serif" font-size="14.00" fill="#000000">no_result</text>
</g>
<!-- api.deposits.state.RESULT_IS_READY -->
<g id="node7" class="node">
<title>api.deposits.state.RESULT_IS_READY</title>
<ellipse fill="none" stroke="#000000" cx="188" cy="-310.5504" rx="95.8547" ry="95.8547"/>
<text text-anchor="middle" x="188" y="-305.9504" font-family="Times,serif" font-size="14.00" fill="#000000">RESULT_IS_READY</text>
</g>
<!-- api.deposits.state.WAITING_FOR_RESULT&#45;&gt;api.deposits.state.RESULT_IS_READY -->
<g id="edge13" class="edge">
<title>api.deposits.state.WAITING_FOR_RESULT&#45;&gt;api.deposits.state.RESULT_IS_READY</title>
<path fill="none" stroke="#000000" d="M262.9395,-503.9046C251.0598,-473.2534 238.1409,-439.9207 226.4282,-409.7004"/>
<polygon fill="#000000" stroke="#000000" points="229.548,-408.0647 222.6706,-400.0054 223.0211,-410.5944 229.548,-408.0647"/>
<text text-anchor="middle" x="274" y="-446.8777" font-family="Times,serif" font-size="14.00" fill="#000000">succeeded</text>
</g>
<!-- api.deposits.state.COMMITTED&#45;&gt;api.deposits.state.EXPIRED -->
<g id="edge12" class="edge">
<title>api.deposits.state.COMMITTED&#45;&gt;api.deposits.state.EXPIRED</title>
<path fill="none" stroke="#000000" d="M174.7438,-875.9616C167.8693,-845.6233 159.7895,-809.1436 153,-776.215 127.6033,-653.042 44.0957,-334.2183 83,-214.6231 94.9513,-177.8837 120.1707,-142.6971 142.8977,-116.2669"/>
<polygon fill="#000000" stroke="#000000" points="145.5716,-118.5264 149.54,-108.7028 140.3117,-113.9075 145.5716,-118.5264"/>
<text text-anchor="middle" x="104.5" y="-446.8777" font-family="Times,serif" font-size="14.00" fill="#000000">expire</text>
</g>
<!-- api.deposits.state.COMMITTED&#45;&gt;api.deposits.state.WAITING_FOR_ITEMS -->
<g id="edge14" class="edge">
<title>api.deposits.state.COMMITTED&#45;&gt;api.deposits.state.WAITING_FOR_ITEMS</title>
<path fill="none" stroke="#000000" d="M157.8377,-1001.9442C143.1535,-1032.6578 127.4086,-1071.2151 120,-1107.81 116.5487,-1124.858 114.8407,-1143.062 114.2574,-1160.992"/>
<polygon fill="#000000" stroke="#000000" points="110.7536,-1161.1383 114.0421,-1171.2099 117.7521,-1161.2858 110.7536,-1161.1383"/>
<text text-anchor="middle" x="140" y="-1111.21" font-family="Times,serif" font-size="14.00" fill="#000000">reopen</text>
</g>
<!-- api.deposits.state.COMMITTED&#45;&gt;api.deposits.state.WAITING_FOR_RESULT -->
<g id="edge15" class="edge">
<title>api.deposits.state.COMMITTED&#45;&gt;api.deposits.state.WAITING_FOR_RESULT</title>
<path fill="none" stroke="#000000" d="M212.1155,-877.5737C226.7754,-834.8587 246.4374,-777.5687 263.811,-726.9465"/>
<polygon fill="#000000" stroke="#000000" points="267.2039,-727.8423 267.1397,-717.2477 260.583,-725.57 267.2039,-727.8423"/>
<text text-anchor="middle" x="271" y="-763.615" font-family="Times,serif" font-size="14.00" fill="#000000">started</text>
</g>
<!-- api.deposits.state.RESULT_IS_READY&#45;&gt;api.deposits.state.EXPIRED -->
<g id="edge10" class="edge">
<title>api.deposits.state.RESULT_IS_READY&#45;&gt;api.deposits.state.EXPIRED</title>
<path fill="none" stroke="#000000" d="M188,-214.5659C188,-187.8061 188,-159.3795 188,-134.8986"/>
<polygon fill="#000000" stroke="#000000" points="191.5001,-134.6648 188,-124.6648 184.5001,-134.6648 191.5001,-134.6648"/>
<text text-anchor="middle" x="205.5" y="-165.0231" font-family="Times,serif" font-size="14.00" fill="#000000">expire</text>
</g>
<!-- api.deposits.state.RESULT_IS_READY&#45;&gt;api.deposits.state.WAITING_FOR_ITEMS -->
<g id="edge9" class="edge">
<title>api.deposits.state.RESULT_IS_READY&#45;&gt;api.deposits.state.WAITING_FOR_ITEMS</title>
<path fill="none" stroke="#000000" d="M119.6549,-378.3129C104.0842,-397.7895 89.6057,-420.1278 81,-443.4777 80.8945,-443.7639 71,-794.41 71,-794.715 71,-1115.81 71,-1115.81 71,-1115.81 71,-1133.5443 73.8475,-1151.8714 78.2099,-1169.5426"/>
<polygon fill="#000000" stroke="#000000" points="74.8449,-1170.5087 80.7808,-1179.2845 81.6132,-1168.7224 74.8449,-1170.5087"/>
<text text-anchor="middle" x="91" y="-763.615" font-family="Times,serif" font-size="14.00" fill="#000000">reopen</text>
</g>
<!-- api.deposits.state.RESULT_IS_READY&#45;&gt;api.deposits.state.COMMITTED -->
<g id="edge8" class="edge">
<title>api.deposits.state.RESULT_IS_READY&#45;&gt;api.deposits.state.COMMITTED</title>
<path fill="none" stroke="#000000" d="M167.374,-404.6819C161.8843,-433.9433 156.7264,-466.4119 154,-496.4777 144.8992,-596.838 145.7924,-622.7777 154,-723.215 157.8896,-770.8129 166.4633,-823.6594 174.2679,-865.4904"/>
<polygon fill="#000000" stroke="#000000" points="170.8313,-866.1541 176.1273,-875.3303 177.7095,-864.8543 170.8313,-866.1541"/>
<text text-anchor="middle" x="168" y="-605.2463" font-family="Times,serif" font-size="14.00" fill="#000000">retry</text>
</g>
<!-- api.items.state.EXPIRED -->
<g id="node8" class="node">
<title>api.items.state.EXPIRED</title>
<ellipse fill="none" stroke="#000000" cx="616" cy="-609.8463" rx="50.1375" ry="50.1375"/>
<ellipse fill="none" stroke="#000000" cx="616" cy="-609.8463" rx="54.1237" ry="54.1237"/>
<text text-anchor="middle" x="616" y="-605.2463" font-family="Times,serif" font-size="14.00" fill="#000000">EXPIRED</text>
</g>
<!-- api.items.state.WAITING_FOR_UPLOAD -->
<g id="node9" class="node">
<title>api.items.state.WAITING_FOR_UPLOAD</title>
<ellipse fill="none" stroke="#000000" cx="683" cy="-1278.2036" rx="117.2872" ry="117.2872"/>
<text text-anchor="middle" x="683" y="-1273.6036" font-family="Times,serif" font-size="14.00" fill="#000000">WAITING_FOR_UPLOAD</text>
</g>
<!-- api.items.state.WAITING_FOR_UPLOAD&#45;&gt;api.items.state.EXPIRED -->
<g id="edge19" class="edge">
<title>api.items.state.WAITING_FOR_UPLOAD&#45;&gt;api.items.state.EXPIRED</title>
<path fill="none" stroke="#000000" d="M587.6818,-1209.4712C562.8931,-1183.6462 543,-1151.7311 543,-1115.81 543,-1115.81 543,-1115.81 543,-768.215 543,-730.327 560.4454,-691.6358 578.2797,-661.981"/>
<polygon fill="#000000" stroke="#000000" points="581.2601,-663.8159 583.556,-653.4728 575.3112,-660.1266 581.2601,-663.8159"/>
<text text-anchor="middle" x="560.5" y="-937.4125" font-family="Times,serif" font-size="14.00" fill="#000000">expire</text>
</g>
<!-- api.items.state.READY_FOR_PROCESSING -->
<g id="node11" class="node">
<title>api.items.state.READY_FOR_PROCESSING</title>
<ellipse fill="none" stroke="#000000" cx="725" cy="-942.0125" rx="128.5953" ry="128.5953"/>
<text text-anchor="middle" x="725" y="-937.4125" font-family="Times,serif" font-size="14.00" fill="#000000">READY_FOR_PROCESSING</text>
</g>
<!-- api.items.state.WAITING_FOR_UPLOAD&#45;&gt;api.items.state.READY_FOR_PROCESSING -->
<g id="edge17" class="edge">
<title>api.items.state.WAITING_FOR_UPLOAD&#45;&gt;api.items.state.READY_FOR_PROCESSING</title>
<path fill="none" stroke="#000000" d="M697.5717,-1161.5638C700.8635,-1135.2145 704.3885,-1106.9984 707.7777,-1079.869"/>
<polygon fill="#000000" stroke="#000000" points="711.2528,-1080.2853 709.0196,-1069.9285 704.3068,-1079.4175 711.2528,-1080.2853"/>
<text text-anchor="middle" x="730.5" y="-1111.21" font-family="Times,serif" font-size="14.00" fill="#000000">uploaded</text>
</g>
<!-- api.items.state._initial -->
<g id="node10" class="node">
<title>api.items.state._initial</title>
<ellipse fill="#000000" stroke="#000000" cx="683" cy="-1472.3972" rx="1.8" ry="1.8"/>
</g>
<!-- api.items.state._initial&#45;&gt;api.items.state.WAITING_FOR_UPLOAD -->
<g id="edge16" class="edge">
<title>api.items.state._initial&#45;&gt;api.items.state.WAITING_FOR_UPLOAD</title>
<path fill="none" stroke="#000000" d="M683,-1470.2163C683,-1462.6774 683,-1436.4912 683,-1405.7774"/>
<polygon fill="#000000" stroke="#000000" points="686.5001,-1405.6641 683,-1395.6641 679.5001,-1405.6642 686.5001,-1405.6641"/>
</g>
<!-- api.items.state.READY_FOR_PROCESSING&#45;&gt;api.items.state.EXPIRED -->
<g id="edge18" class="edge">
<title>api.items.state.READY_FOR_PROCESSING&#45;&gt;api.items.state.EXPIRED</title>
<path fill="none" stroke="#000000" d="M684.7221,-819.2698C668.2159,-768.9688 649.8383,-712.9649 636.2436,-671.5366"/>
<polygon fill="#000000" stroke="#000000" points="639.5131,-670.2745 633.0696,-661.8642 632.8621,-672.457 639.5131,-670.2745"/>
<text text-anchor="middle" x="687.5" y="-763.615" font-family="Times,serif" font-size="14.00" fill="#000000">expire</text>
</g>
</g>
</svg>
