<?xml version="1.0" encoding="UTF-8" standalone="no"?>
<!DOCTYPE svg PUBLIC "-//W3C//DTD SVG 1.1//EN"
 "http://www.w3.org/Graphics/SVG/1.1/DTD/svg11.dtd">
<!-- Generated by graphviz version 2.30.1 (20180420.1509)
 -->
<!-- Title: %3 Pages: 1 -->
<svg width="300pt" height="363pt"
 viewBox="0.00 0.00 300.00 363.00" xmlns="http://www.w3.org/2000/svg" xmlns:xlink="http://www.w3.org/1999/xlink">
<g id="graph0" class="graph" transform="scale(1 1) rotate(0) translate(4 359)">
<title>%3</title>
<polygon fill="white" stroke="white" points="-4,5 -4,-359 297,-359 297,5 -4,5"/>
<g id="clust1" class="cluster"><title>cluster_deposit_item_file_state_diagram</title>
<polygon fill="none" stroke="black" points="8,-8 8,-347 284,-347 284,-8 8,-8"/>
<text text-anchor="middle" x="146" y="-331.8" font-family="Times,serif" font-size="14.00">Items.state</text>
</g>
<!-- START -->
<g id="node1" class="node"><title>START</title>
<ellipse fill="black" stroke="black" cx="150" cy="-314" rx="1.8" ry="1.8"/>
</g>
<!-- WAITING_FOR_UPLOAD -->
<g id="node3" class="node"><title>WAITING_FOR_UPLOAD</title>
<ellipse fill="#d2b48c" stroke="black" cx="150" cy="-258" rx="111.21" ry="18"/>
<text text-anchor="middle" x="150" y="-254.3" font-family="Times,serif" font-size="14.00">WAITING_FOR_UPLOAD</text>
</g>
<!-- START&#45;&gt;WAITING_FOR_UPLOAD -->
<g id="edge1" class="edge"><title>START&#45;&gt;WAITING_FOR_UPLOAD</title>
<path fill="none" stroke="#be9f78" d="M150,-312.063C150,-308.803 150,-297.541 150,-286.227"/>
<polygon fill="#be9f78" stroke="#be9f78" points="153.5,-286.049 150,-276.049 146.5,-286.049 153.5,-286.049"/>
</g>
<!-- END -->
<g id="node2" class="node"><title>END</title>
<ellipse fill="black" stroke="black" cx="173" cy="-38" rx="18" ry="18"/>
<ellipse fill="none" stroke="black" cx="173" cy="-38" rx="22" ry="22"/>
</g>
<!-- READY_FOR_PROCESSING -->
<g id="node4" class="node"><title>READY_FOR_PROCESSING</title>
<ellipse fill="#d2b48c" stroke="black" cx="136" cy="-186" rx="120.359" ry="18"/>
<text text-anchor="middle" x="136" y="-182.3" font-family="Times,serif" font-size="14.00">READY_FOR_PROCESSING</text>
</g>
<!-- WAITING_FOR_UPLOAD&#45;&gt;READY_FOR_PROCESSING -->
<g id="edge2" class="edge"><title>WAITING_FOR_UPLOAD&#45;&gt;READY_FOR_PROCESSING</title>
<path fill="none" stroke="#be9f78" d="M146.539,-239.697C144.997,-231.983 143.142,-222.712 141.422,-214.112"/>
<polygon fill="#be9f78" stroke="#be9f78" points="144.814,-213.224 139.421,-204.104 137.95,-214.597 144.814,-213.224"/>
</g>
<!-- EXPIRED -->
<g id="node5" class="node"><title>EXPIRED</title>
<ellipse fill="#d2b48c" stroke="black" cx="173" cy="-114" rx="48.1437" ry="18"/>
<text text-anchor="middle" x="173" y="-110.3" font-family="Times,serif" font-size="14.00">EXPIRED</text>
</g>
<!-- WAITING_FOR_UPLOAD&#45;&gt;EXPIRED -->
<g id="edge5" class="edge"><title>WAITING_FOR_UPLOAD&#45;&gt;EXPIRED</title>
<path fill="none" stroke="#be9f78" d="M211.955,-242.922C232.4,-235.014 252.969,-222.792 265,-204 273.627,-190.525 273.007,-181.853 265,-168 254.96,-150.629 236.827,-138.449 219.297,-130.185"/>
<polygon fill="#be9f78" stroke="#be9f78" points="220.241,-126.779 209.676,-125.989 217.443,-133.195 220.241,-126.779"/>
</g>
<!-- READY_FOR_PROCESSING&#45;&gt;EXPIRED -->
<g id="edge3" class="edge"><title>READY_FOR_PROCESSING&#45;&gt;EXPIRED</title>
<path fill="none" stroke="#be9f78" d="M145.146,-167.697C149.403,-159.644 154.556,-149.894 159.266,-140.982"/>
<polygon fill="#be9f78" stroke="#be9f78" points="162.38,-142.581 163.959,-132.104 156.192,-139.31 162.38,-142.581"/>
</g>
<!-- EXPIRED&#45;&gt;END -->
<g id="edge4" class="edge"><title>EXPIRED&#45;&gt;END</title>
<path fill="none" stroke="#be9f78" d="M173,-95.8369C173,-88.165 173,-78.8775 173,-70.0535"/>
<polygon fill="#be9f78" stroke="#be9f78" points="176.5,-70.0322 173,-60.0322 169.5,-70.0322 176.5,-70.0322"/>
</g>
<!-- EXPIRED&#45;&gt;EXPIRED -->
<g id="edge6" class="edge"><title>EXPIRED&#45;&gt;EXPIRED</title>
<path fill="none" stroke="#be9f78" d="M206.28,-127.025C223.488,-129.029 239,-124.688 239,-114 239,-105.483 229.15,-100.996 216.44,-100.539"/>
<polygon fill="#be9f78" stroke="#be9f78" points="216.121,-97.0493 206.28,-100.975 216.421,-104.043 216.121,-97.0493"/>
</g>
</g>
</svg>
