<?xml version="1.0" encoding="UTF-8" standalone="no"?>
<!DOCTYPE svg PUBLIC "-//W3C//DTD SVG 1.1//EN"
 "http://www.w3.org/Graphics/SVG/1.1/DTD/svg11.dtd">
<!-- Generated by graphviz version 2.30.1 (20180420.1509)
 -->
<!-- Title: %3 Pages: 1 -->
<svg width="346pt" height="395pt"
 viewBox="0.00 0.00 346.00 395.00" xmlns="http://www.w3.org/2000/svg" xmlns:xlink="http://www.w3.org/1999/xlink">
<g id="graph0" class="graph" transform="scale(1 1) rotate(0) translate(4 391)">
<title>%3</title>
<polygon fill="white" stroke="white" points="-4,5 -4,-391 343,-391 343,5 -4,5"/>
<g id="clust1" class="cluster"><title>cluster_deposit_item_file_state_diagram</title>
<polygon fill="none" stroke="black" points="8,-8 8,-379 330,-379 330,-8 8,-8"/>
<text text-anchor="middle" x="169" y="-363.8" font-family="Times,serif" font-size="14.00">Items.state</text>
</g>
<!-- START -->
<g id="node1" class="node"><title>START</title>
<ellipse fill="black" stroke="black" cx="192" cy="-346" rx="1.8" ry="1.8"/>
</g>
<!-- WAITING_FOR_UPLOAD -->
<g id="node3" class="node"><title>WAITING_FOR_UPLOAD</title>
<ellipse fill="#d2b48c" stroke="black" cx="192" cy="-288" rx="111.21" ry="18"/>
<text text-anchor="middle" x="192" y="-284.3" font-family="Times,serif" font-size="14.00">WAITING_FOR_UPLOAD</text>
</g>
<!-- START&#45;&gt;WAITING_FOR_UPLOAD -->
<g id="edge1" class="edge"><title>START&#45;&gt;WAITING_FOR_UPLOAD</title>
<path fill="none" stroke="#be9f78" d="M192,-344.028C192,-340.568 192,-328.416 192,-316.408"/>
<polygon fill="#be9f78" stroke="#be9f78" points="195.5,-316.116 192,-306.116 188.5,-316.116 195.5,-316.116"/>
</g>
<!-- END -->
<g id="node2" class="node"><title>END</title>
<ellipse fill="black" stroke="black" cx="239" cy="-38" rx="18" ry="18"/>
<ellipse fill="none" stroke="black" cx="239" cy="-38" rx="22" ry="22"/>
</g>
<!-- READY_FOR_PROCESSING -->
<g id="node4" class="node"><title>READY_FOR_PROCESSING</title>
<ellipse fill="#d2b48c" stroke="black" cx="136" cy="-202" rx="120.359" ry="18"/>
<text text-anchor="middle" x="136" y="-198.3" font-family="Times,serif" font-size="14.00">READY_FOR_PROCESSING</text>
</g>
<!-- WAITING_FOR_UPLOAD&#45;&gt;READY_FOR_PROCESSING -->
<g id="edge2" class="edge"><title>WAITING_FOR_UPLOAD&#45;&gt;READY_FOR_PROCESSING</title>
<path fill="none" stroke="#be9f78" d="M180.668,-270.001C172.698,-258.046 161.895,-241.842 152.91,-228.365"/>
<polygon fill="#be9f78" stroke="#be9f78" points="155.775,-226.352 147.316,-219.973 149.95,-230.235 155.775,-226.352"/>
<text text-anchor="middle" x="189" y="-241.9" font-family="Times,serif" font-size="12.00" fill="#777777">uploaded</text>
</g>
<!-- EXPIRED -->
<g id="node5" class="node"><title>EXPIRED</title>
<ellipse fill="#d2b48c" stroke="black" cx="239" cy="-116" rx="48.1437" ry="18"/>
<text text-anchor="middle" x="239" y="-112.3" font-family="Times,serif" font-size="14.00">EXPIRED</text>
</g>
<!-- WAITING_FOR_UPLOAD&#45;&gt;EXPIRED -->
<g id="edge5" class="edge"><title>WAITING_FOR_UPLOAD&#45;&gt;EXPIRED</title>
<path fill="none" stroke="#be9f78" d="M219.246,-270.494C235.866,-258.73 255.655,-241.26 265,-220 276.069,-194.817 265.413,-164.013 254.591,-142.688"/>
<polygon fill="#be9f78" stroke="#be9f78" points="257.518,-140.744 249.684,-133.611 251.36,-144.073 257.518,-140.744"/>
<text text-anchor="middle" x="284" y="-198.9" font-family="Times,serif" font-size="12.00" fill="#777777">expire</text>
</g>
<!-- READY_FOR_PROCESSING&#45;&gt;EXPIRED -->
<g id="edge3" class="edge"><title>READY_FOR_PROCESSING&#45;&gt;EXPIRED</title>
<path fill="none" stroke="#be9f78" d="M156.844,-184.001C172.706,-171.065 194.669,-153.154 211.895,-139.105"/>
<polygon fill="#be9f78" stroke="#be9f78" points="214.387,-141.589 219.924,-132.557 209.963,-136.165 214.387,-141.589"/>
<text text-anchor="middle" x="208" y="-155.9" font-family="Times,serif" font-size="12.00" fill="#777777">expire</text>
</g>
<!-- EXPIRED&#45;&gt;END -->
<g id="edge4" class="edge"><title>EXPIRED&#45;&gt;END</title>
<path fill="none" stroke="#be9f78" d="M239,-97.7544C239,-89.6721 239,-79.7829 239,-70.4394"/>
<polygon fill="#be9f78" stroke="#be9f78" points="242.5,-70.2476 239,-60.2476 235.5,-70.2476 242.5,-70.2476"/>
</g>
</g>
</svg>
